<svg xmlns="http://www.w3.org/2000/svg" viewBox="0 0 32 32" fill="none">
  <rect width="32" height="32" rx="6" fill="#232F3E"/>
  <path d="M9.5 18.5c0 .8.2 1.4.5 1.8.3.4.7.6 1.1.6.3 0 .6-.1.9-.3.3-.2.5-.5.8-.9l.5.4c-.3.5-.7.9-1.1 1.2-.4.3-.9.4-1.4.4-.7 0-1.3-.3-1.7-.8-.4-.5-.6-1.3-.6-2.2 0-1 .2-1.8.7-2.3.4-.6 1-.8 1.7-.8.6 0 1.1.2 1.4.7.4.4.5 1 .5 1.8v.4H9.5zm3.5-.6c0-.6-.1-1-.3-1.3-.2-.3-.5-.5-.9-.5s-.7.2-1 .5c-.3.3-.4.7-.5 1.3h2.7z" fill="#FF9900"/>
  <path d="M16.3 21.2l-2-5.8h.8l1.2 3.6c.1.4.2.7.3 1.1h0c.1-.4.2-.8.3-1.1l1.2-3.6h.8l-2 5.8h-.6z" fill="#FF9900"/>
  <path d="M21.5 21.3c-.7 0-1.2-.2-1.6-.7-.4-.5-.6-1.1-.6-2s.2-1.5.6-2c.4-.5.9-.7 1.6-.7.4 0 .7.1 1 .2l-.2.6c-.3-.1-.5-.2-.8-.2-.5 0-.8.2-1 .5-.2.3-.4.8-.4 1.5s.1 1.2.3 1.5c.2.3.6.5 1 .5.3 0 .6-.1.9-.2l.2.6c-.3.2-.7.4-1.1.4z" fill="#FF9900"/>
  <path d="M7 23.5c2.5 1.5 5.5 2.3 8.8 2.3 3.6 0 6.8-1 9.3-2.7.2-.1.4 0 .2.3-1.4 1.5-4.5 3-8.4 3-4 0-7.6-1.5-10.3-4-.3-.2-.1-.5.4-.9z" fill="#FF9900"/>
  <path d="M25.8 22.2c.3-.4 1.8-1.5 2-1.1.2.4-.2 2.3-.4 3.1-.1.2.1.3.3.1 1.3-1.1 1.7-3.3 1.4-3.6-.3-.3-2.3-.5-3.6.4-.2.2-.2.3.3.1z" fill="#FF9900"/>
</svg>
